# xmcd
#
# Track frame offsets: 
#        180
#        14452
#        28788
#        40038
#        51679
#        68605
#        80385
#        93511
#        111733
#        122977
#        140606
#        154101
#        164848
#        179243
#
# Disc length: 2534 seconds
#
# Revision: 0
# Processed by: cddbd v1.5.1PL0 Copyright (c) Steve Scherf et al.
# Submitted via: ExactAudioCopy v0.95a5
#
DISCID=d309e40e
DTITLE=Black Bottom Skiffle Group - 25 Jahre Best Of
DYEAR=1995
DGENRE=Easy Listening
TTITLE0=Rid'n' To Louisville
TTITLE1=Won't You Come On Home
TTITLE2=Let The Air Out Of The Bottle
TTITLE3=We Had A Party
TTITLE4=Past Times (Lookin' Back)
TTITLE5=Peter und Joe
TTITLE6=I und der Niedermeier (Ring of fire)
TTITLE7=Singin' A Lullaby
TTITLE8=Heid hod er wieder vui g'arbat
TTITLE9=Host du des g'seh'n (Mother is only sleepin')
TTITLE10=Nach Amerika
TTITLE11=Rumba Grass
TTITLE12=Nia im Leb'm werd' i di vergess'n
TTITLE13=Des Indianerleb'm
EXTD=
EXTT0=
EXTT1=
EXTT2=
EXTT3=
EXTT4=
EXTT5=
EXTT6=
EXTT7=
EXTT8=
EXTT9=
EXTT10=
EXTT11=
EXTT12=
EXTT13=
PLAYORDER=
